<?xml version="1.0" encoding="UTF-8"?>
<svg width="426px" height="162px" viewBox="0 0 426 162" version="1.1" xmlns="http://www.w3.org/2000/svg" xmlns:xlink="http://www.w3.org/1999/xlink">
    <title>Group 2</title>
    <defs>
        <filter color-interpolation-filters="auto" id="filter-1">
            <feColorMatrix in="SourceGraphic" type="matrix" values="0 0 0 0 0.000000 0 0 0 0 0.501961 0 0 0 0 0.576471 0 0 0 1.000000 0"></feColorMatrix>
        </filter>
    </defs>
    <g id="logo" stroke="none" stroke-width="1" fill="none" fill-rule="evenodd">
        <g filter="url(#filter-1)" id="Group-2">
            <g>
                <path d="M116.266376,0 L116.266376,19.6363636 L19.3777293,19.6363636 L19.3777293,142.363636 L116.266376,142.363636 L116.266376,162 L0,162 L0,0 L116.266376,0 Z" id="Combined-Shape" fill="#007F98"></path>
                <path d="M426,0 L426,19.6363636 L329.111354,19.6363636 L329.111354,142.363636 L426,142.363636 L426,162 L309.733624,162 L309.733624,0 L426,0 Z" id="Combined-Shape" fill="#007F98" transform="translate(367.866812, 81.000000) scale(-1, 1) translate(-367.866812, -81.000000) "></path>
                <path d="M307.489356,81.9409029 C307.742735,83.9389392 307.873362,85.9757262 307.873362,88.0433125 C307.873362,114.323558 286.769246,135.627907 260.735999,135.627907 C238.446935,135.627907 219.771115,120.010992 214.860137,99.0250764 L224.871381,99.0246942 C229.532586,114.5587 243.826111,125.866965 260.735999,125.866965 C281.429093,125.866965 298.20416,108.932739 298.20416,88.0433125 C298.20416,85.9658783 298.038252,83.9275614 297.719083,81.9411277 L307.489356,81.9409029 Z" id="Combined-Shape" fill="#007F98"></path>
                <path d="M211.685988,29.1976744 C211.939366,31.1957108 212.069994,33.2324978 212.069994,35.3000841 C212.069994,61.5803299 190.965878,82.8846785 164.932631,82.8846785 C142.643567,82.8846785 123.967747,67.2677637 119.056769,46.2818479 L129.068013,46.2814658 C133.729218,61.8154716 148.022743,73.1237361 164.932631,73.1237361 C185.625725,73.1237361 202.400792,56.1895103 202.400792,35.3000841 C202.400792,33.2226498 202.234884,31.184333 201.915715,29.1978992 L211.685988,29.1976744 Z" id="Combined-Shape" fill="#007F98" transform="translate(165.563381, 56.041176) scale(-1, -1) translate(-165.563381, -56.041176) "></path>
                <polygon id="Path-2" fill="#007F98" points="211.862992 65.0125877 224.853221 99.0243728 215.767119 102.662791 202.030216 65.6324515"></polygon>
            </g>
        </g>
    </g>
</svg>