<?xml version="1.0" encoding="UTF-8"?>
<svg width="2074px" height="2038px" viewBox="0 0 2074 2038" version="1.1" xmlns="http://www.w3.org/2000/svg" xmlns:xlink="http://www.w3.org/1999/xlink">
    <title>dwg_icon</title>
    <g id="Page-1" stroke="none" stroke-width="1" fill="none" fill-rule="evenodd">
        <g id="dwg_icon" transform="translate(0.537830, 0.549212)" fill-rule="nonzero">
            <path d="M2040.49722,557.648011 C1969.05975,435.511735 1783.73478,378.41883 1591.14674,409.222022 C1734.1384,397.497354 1848.2853,450.271327 1909.78793,555.48206 C2001.71762,712.662641 1794.49969,951.345224 1456.32604,1188.38065 C1464.80827,1250.71334 1467.70052,1313.02009 1468.66029,1375.35278 C1929.45009,1079.12335 2164.50114,769.703667 2040.49722,557.648011 Z" id="Path" fill="#000000"></path>
            <path d="M2004.0003,501.398141 C1932.58878,379.261865 1747.2638,322.181929 1554.6628,352.972151 C1697.65445,341.247484 1811.80135,394.021457 1873.30398,499.23219 C1965.23367,656.42574 1758.01574,895.095354 1419.84209,1132.11781 C1428.32432,1194.4505 1431.21657,1256.77022 1432.17634,1319.10291 C1892.96614,1022.86051 2128.01719,713.453797 2004.0003,501.398141 Z" id="Path" fill="#FFFFFF"></path>
            <polygon id="Path" fill="#39393C" points="774.907562 66.1587707 1408.61027 66.1587707 1923.92497 2029.93681 1385.49815 2029.93681 1021.7611 614.702007 685.909035 2036.90158 203.874753 2036.90158"></polygon>
            <polygon id="Path" fill="#CC2229" points="708.748791 0 1342.43853 0 1600.26449 982.498599 1757.36725 989.333665 1767.27615 1368.40098 1701.51944 1368.32317 1857.75323 1963.79101 1319.33938 1963.79101 955.615296 548.530266 809.951866 1165.29447 1190.41992 1193.71122 1213.5061 1407.95877 715.700585 1564.43898 619.750264 1970.7428 137.715983 1970.7428"></polygon>
            <path d="M1181.10763,1358.50505 C685.273517,1648.48306 277.543018,1644.41055 161.969443,1446.80321 C67.8997383,1285.96516 256.778424,1059.51306 447.200512,887.819316 C121.776142,1144.63363 -26.1959059,1405.22215 78.5219758,1584.25678 C213.861472,1815.66333 799.420417,1764.60136 1345.94037,1444.98745 C1383.89768,1422.79891 1421.45546,1399.93389 1458.59575,1376.40333 C1450.91765,1316.50895 1443.44706,1256.70537 1437.84412,1196.2922 C1358.27462,1250.90788 1272.03865,1305.31605 1181.10763,1358.50505 L1181.10763,1358.50505 Z" id="Path" fill="#000000"></path>
            <path d="M1135.83018,1313.2276 C640.009037,1603.20561 232.265569,1599.1331 116.691994,1401.52576 C22.6222891,1240.68771 211.500975,1014.23561 401.923063,842.541866 C76.4986924,1099.35618 -71.4603854,1359.95767 33.2445266,1538.97933 C168.584023,1770.38588 754.142968,1719.32391 1300.64995,1399.71 C1346.31649,1372.99228 1390.14133,1346.10596 1432.17634,1319.08994 C1431.21657,1256.75725 1428.32432,1194.43753 1419.84209,1132.10484 C1332.89279,1193.0757 1237.26671,1253.9039 1135.83018,1313.2276 L1135.83018,1313.2276 Z" id="Path" fill="#FFFFFF"></path>
            <polygon id="Path" fill="#000000" points="1538.17823 1277.7553 1670.02885 1277.7553 1670.02885 1147.5648 1538.17823 1147.5648"></polygon>
            <path d="M1861.20319,1147.55183 L1861.20319,956.377493 L1670.02885,956.377493 L1670.02885,574.028824 L1582.69046,574.028824 L1582.69046,956.377493 L1412.91624,956.377493 L1412.91624,1147.55183 L585.574934,1147.55183 L585.574934,1277.7553 L1343.70957,1277.7553 L1343.70957,1465.63531 L1543.11971,1465.63531 L1543.11971,1979.83461 L1670.02885,1979.83461 L1670.02885,1465.63531 L1861.20319,1465.63531 L1861.20319,1277.7553 L2055.67184,1277.7553 L2055.67184,1147.55183 L1861.20319,1147.55183 L1861.20319,1147.55183 Z M1795.29084,1399.71 L1478.85452,1399.71 L1478.85452,1083.27367 L1795.29084,1083.27367 L1795.29084,1399.71 Z" id="Shape" fill="#000000"></path>
            <polygon id="Path" fill="#FFF22D" points="1538.17823 1213.47714 1600.79625 1213.47714 1600.79625 1147.5648 1538.17823 1147.5648"></polygon>
            <path d="M1793.64368,1147.5648 L1793.64368,956.377493 L1602.46935,956.377493 L1602.46935,574.028824 L1539.82539,574.028824 L1539.82539,956.377493 L1345.35673,956.377493 L1345.35673,1147.5648 L518.002459,1147.5648 L518.002459,1213.47714 L1345.35673,1213.47714 L1345.35673,1401.35716 L1539.82539,1401.35716 L1539.82539,1915.55645 L1602.46935,1915.55645 L1602.46935,1401.35716 L1793.64368,1401.35716 L1793.64368,1213.47714 L1988.11234,1213.47714 L1988.11234,1147.5648 L1793.64368,1147.5648 L1793.64368,1147.5648 Z M1727.7054,1335.43184 L1411.29502,1335.43184 L1411.29502,1019.00849 L1727.7054,1019.00849 L1727.7054,1335.43184 L1727.7054,1335.43184 Z" id="Shape" fill="#FFF22D"></path>
        </g>
    </g>
</svg>