<?xml version="1.0" encoding="UTF-8"?>
<svg width="829px" height="357px" viewBox="0 0 829 357" version="1.1" xmlns="http://www.w3.org/2000/svg" xmlns:xlink="http://www.w3.org/1999/xlink">
    <title>Workflow Navigator Logo</title>
    <defs>
        <filter color-interpolation-filters="auto" id="filter-1">
            <feColorMatrix in="SourceGraphic" type="matrix" values="0 0 0 0 0.000000 0 0 0 0 0.501961 0 0 0 0 0.576471 0 0 0 1.000000 0"></feColorMatrix>
        </filter>
    </defs>
    <g id="Workflow-Navigator-Logo" stroke="none" stroke-width="1" fill="none" fill-rule="evenodd">
        <g id="Group" transform="translate(173.540000, 89.460000)" fill-rule="nonzero">
            <path d="M9.37495793,244.05 L15.4607876,232.6 L27.8798384,232.6 L29.166274,244.05 L31.2938405,244.05 L27.286099,211.1 L24.9606193,211.1 L7,244.05 L9.37495793,244.05 Z M27.6819253,230.85 L16.4008751,230.85 L19.7653989,224.5 C21.7940088,220.7 23.6741838,217.25 25.6038371,213.25 L25.8017503,213.25 C26.1480983,217.15 26.5934029,220.85 26.9397509,224.5 L27.6819253,230.85 Z M37.5775833,244.05 L41.0905419,226.35 C44.6529788,222.8 47.423763,221.3 49.5018512,221.3 C52.5200269,221.3 53.7569842,222.8 53.7569842,225.75 C53.7569842,226.7 53.6085493,227.4 53.3611579,228.85 L50.2935039,244.05 L52.3221138,244.05 L55.3897678,228.55 C55.6866375,227.15 55.7855941,226.5 55.7855941,225.3 C55.7855941,221.8 54.2022888,219.45 50.145069,219.45 C47.2258499,219.45 44.5540222,221.35 41.6348031,223.85 L41.4368899,223.85 L41.9811511,220.05 L40.2988893,220.05 L35.4994951,244.05 L37.5775833,244.05 Z M68.1056883,244.05 L74.191518,232.6 L86.6105688,232.6 L87.8970044,244.05 L90.0245709,244.05 L86.0168294,211.1 L83.6913497,211.1 L65.7307304,244.05 L68.1056883,244.05 Z M86.4126557,230.85 L75.1316055,230.85 L78.4961292,224.5 C80.5247391,220.7 82.4049142,217.25 84.3345675,213.25 L84.5324806,213.25 C84.8788287,217.15 85.3241333,220.85 85.6704813,224.5 L86.4126557,230.85 Z M96.8030966,244.65 C97.545271,244.65 97.9410973,244.55 98.4853585,244.3 L98.3369236,242.65 C97.8421407,242.85 97.7431841,242.85 97.4957927,242.85 C97.0010098,242.85 96.8030966,242.55 96.8030966,242.1 C96.8030966,241.9 96.8030966,241.6 96.9020532,241.1 L103.383709,208.1 L101.355099,208.1 L94.8734433,240.95 C94.7250084,241.55 94.6260518,242.1 94.6260518,242.5 C94.6260518,243.9 95.5166611,244.65 96.8030966,244.65 Z M114.664759,244.65 C121.195894,244.65 127.529115,237.35 127.529115,228.1 C127.529115,222.45 124.807809,219.45 120.602154,219.45 C117.386065,219.45 114.36789,221.35 111.844497,223.4 L111.74554,223.4 L112.784584,218.55 L114.862673,208.1 L112.834063,208.1 L105.709189,244.05 L107.440929,244.05 L108.381016,240.75 L108.529451,240.75 C109.815887,243.1 111.844497,244.65 114.664759,244.65 Z M114.664759,242.85 C112.438236,242.85 110.558061,241.6 108.826321,238.5 L111.399192,225.7 C114.07102,223.1 117.5345,221.25 120.15685,221.25 C123.422417,221.25 125.500505,223.65 125.500505,228.45 C125.500505,235.7 120.305284,242.85 114.664759,242.85 Z M138.859643,244.65 C142.12521,244.65 145.192864,242.8 147.617301,240.25 L147.815214,240.25 L147.270953,244.05 L149.002693,244.05 L153.752609,220.05 L152.070347,220.05 L151.130259,223.35 L150.981824,223.35 C149.695389,221 147.617301,219.45 144.846516,219.45 C138.265904,219.45 131.932683,226.75 131.932683,236 C131.932683,241.6 134.703467,244.65 138.859643,244.65 Z M139.304948,242.85 C136.039381,242.85 134.010771,240.45 134.010771,235.6 C134.010771,228.4 139.156513,221.25 144.797038,221.25 C147.023561,221.25 148.953214,222.5 150.684955,225.6 L148.21104,237.65 C145.390778,240.95 142.372602,242.85 139.304948,242.85 Z M164.439919,244.65 C165.973746,244.65 167.30966,244.05 168.249748,243.55 L167.705486,242 C166.913834,242.4 165.973746,242.85 164.835746,242.85 C162.262874,242.85 161.471222,241.7 161.471222,239.5 C161.471222,238.8 161.570178,238.2 161.669135,237.6 L164.885224,221.85 L171.317402,221.85 L171.713228,220.05 L165.28105,220.05 L166.666442,213.2 L164.934702,213.2 L163.301919,220.05 L159.442612,220.25 L159.145742,221.85 L162.856614,221.85 L159.640525,237.5 C159.541568,238.35 159.442612,239 159.442612,239.9 C159.442612,242.45 160.729047,244.65 164.439919,244.65 Z M174.681925,244.05 L177.799058,228.15 C179.926624,223.85 182.9448,221.4 185.468193,221.4 C186.358802,221.4 186.903063,221.6 187.348368,221.8 L188.14002,219.85 C187.348368,219.55 186.655671,219.45 186.012454,219.45 C182.9448,219.45 180.520364,221.75 178.541232,224.6 L178.343319,224.6 L179.085493,220.05 L177.403231,220.05 L172.603837,244.05 L174.681925,244.05 Z M196.007068,244.65 C202.488724,244.65 208.574554,237.9 208.574554,228.95 C208.574554,222.9 205.407943,219.45 200.509593,219.45 C194.077415,219.45 187.991585,226.15 187.991585,235.15 C187.991585,241.15 191.158196,244.65 196.007068,244.65 Z M196.204981,242.85 C192.246718,242.85 190.020195,240.05 190.020195,234.85 C190.020195,227.5 195.264894,221.25 200.361158,221.25 C204.269943,221.25 206.496466,224 206.496466,229.2 C206.496466,236.6 201.301245,242.85 196.204981,242.85 Z M218.618647,244.65 C223.368563,244.65 226.931,241.9 226.931,237.5 C226.931,235.35 226.139347,233.5 220.993605,230.7 C218.668125,229.4 216.590037,228.2 216.590037,225.9 C216.590037,223.35 219.014473,221.2 222.032649,221.2 C224.407607,221.2 226.04039,222.3 227.326826,223.65 L228.66274,222.35 C227.029956,220.6 224.753955,219.45 222.082127,219.45 C218.074386,219.45 214.610905,222.15 214.610905,226.2 C214.610905,228.7 216.194211,230.4 220.399865,232.7 C224.110737,234.65 224.951868,235.95 224.951868,237.85 C224.951868,240.6 222.131606,242.9 218.866038,242.9 C215.847863,242.9 213.472905,241.2 212.136991,239.1 L210.70212,240.2 C212.087513,242.4 215.254123,244.65 218.618647,244.65 Z M237.865702,244.65 C242.615618,244.65 246.178055,241.9 246.178055,237.5 C246.178055,235.35 245.386402,233.5 240.24066,230.7 C237.91518,229.4 235.837092,228.2 235.837092,225.9 C235.837092,223.35 238.261528,221.2 241.279704,221.2 C243.654662,221.2 245.287445,222.3 246.573881,223.65 L247.909795,222.35 C246.277011,220.6 244.00101,219.45 241.329182,219.45 C237.321441,219.45 233.85796,222.15 233.85796,226.2 C233.85796,228.7 235.441266,230.4 239.64692,232.7 C243.357792,234.65 244.198923,235.95 244.198923,237.85 C244.198923,240.6 241.37866,242.9 238.113093,242.9 C235.094918,242.9 232.71996,241.2 231.384046,239.1 L229.949175,240.2 C231.334567,242.4 234.501178,244.65 237.865702,244.65 Z M262.654325,244.05 L265.425109,229.75 L271.461461,229.75 C279.823292,229.75 285.265904,226.15 285.265904,218.75 C285.265904,213.4 281.555032,211.1 275.568159,211.1 L267.008415,211.1 L260.526759,244.05 L262.654325,244.05 Z M271.263548,227.95 L265.820936,227.95 L268.740155,212.9 L274.67755,212.9 C280.219118,212.9 283.138337,214.65 283.138337,218.95 C283.138337,224.9 279.081117,227.95 271.263548,227.95 Z M288.927297,244.05 L292.044429,228.15 C294.171996,223.85 297.190172,221.4 299.713564,221.4 C300.604174,221.4 301.148435,221.6 301.593739,221.8 L302.385392,219.85 C301.593739,219.55 300.901043,219.45 300.257826,219.45 C297.190172,219.45 294.765735,221.75 292.786604,224.6 L292.588691,224.6 L293.330865,220.05 L291.648603,220.05 L286.849209,244.05 L288.927297,244.05 Z M310.25244,244.65 C316.734096,244.65 322.819926,237.9 322.819926,228.95 C322.819926,222.9 319.653315,219.45 314.754965,219.45 C308.322787,219.45 302.236957,226.15 302.236957,235.15 C302.236957,241.15 305.403568,244.65 310.25244,244.65 Z M310.450353,242.85 C306.49209,242.85 304.265567,240.05 304.265567,234.85 C304.265567,227.5 309.510266,221.25 314.60653,221.25 C318.515315,221.25 320.741838,224 320.741838,229.2 C320.741838,236.6 315.546617,242.85 310.450353,242.85 Z M334.100976,214.25 C335.14002,214.25 336.179064,213.3 336.179064,212.05 C336.179064,211 335.43689,210.35 334.496802,210.35 C333.40828,210.35 332.418714,211.3 332.418714,212.6 C332.418714,213.55 333.160889,214.25 334.100976,214.25 Z M322.176708,255.5 C325.442275,255.5 327.223494,252.85 328.163581,248.45 L333.804106,220.05 L331.775496,220.05 L326.036015,248.7 C325.343319,251.75 324.15584,253.7 322.176708,253.7 C320.989229,253.7 320.444968,253.45 319.851229,253.05 L319.059576,254.7 C319.900707,255.15 320.741838,255.5 322.176708,255.5 Z M347.01481,244.65 C349.736116,244.65 352.259509,243.45 354.189162,242.05 L353.249074,240.55 C351.566813,241.8 349.439246,242.9 347.31168,242.9 C342.611242,242.9 338.949849,239.7 340.236284,232.15 L356.811511,232.15 C357.108381,231.2 357.454729,229.65 357.454729,227.95 C357.454729,223 355.475597,219.45 350.329855,219.45 C344.244026,219.45 337.960283,225.65 337.960283,234.75 C337.960283,241.2 341.52272,244.65 347.01481,244.65 Z M355.277684,230.5 L340.533154,230.5 C341.819589,225.05 345.926287,221.2 350.131942,221.2 C354.189162,221.2 355.574554,224.4 355.574554,227.65 C355.574554,228.7 355.475597,229.55 355.277684,230.5 Z M369.675867,244.65 C372.990912,244.65 375.36587,243.15 377.09761,241.85 L376.058566,240.35 C374.376304,241.7 372.298216,242.85 369.923258,242.85 C365.51969,242.85 363.342646,240.05 363.342646,234.85 C363.342646,227.5 368.587344,221.25 373.931,221.25 C376.108044,221.25 377.345002,222 378.779872,223.75 L380.066308,222.35 C378.532481,220.6 376.80074,219.45 374.079435,219.45 C367.696735,219.45 361.264557,225.85 361.264557,235.15 C361.264557,241.2 364.579603,244.65 369.675867,244.65 Z M389.071356,244.65 C390.605183,244.65 391.941097,244.05 392.881185,243.55 L392.336924,242 C391.545271,242.4 390.605183,242.85 389.467183,242.85 C386.894312,242.85 386.102659,241.7 386.102659,239.5 C386.102659,238.8 386.201616,238.2 386.300572,237.6 L389.516661,221.85 L395.948839,221.85 L396.344665,220.05 L389.912487,220.05 L391.29788,213.2 L389.566139,213.2 L387.933356,220.05 L384.074049,220.25 L383.777179,221.85 L387.488051,221.85 L384.271962,237.5 C384.173006,238.35 384.074049,239 384.074049,239.9 C384.074049,242.45 385.360485,244.65 389.071356,244.65 Z M403.123191,244.65 C407.873107,244.65 411.435544,241.9 411.435544,237.5 C411.435544,235.35 410.643891,233.5 405.498149,230.7 C403.172669,229.4 401.094581,228.2 401.094581,225.9 C401.094581,223.35 403.519017,221.2 406.537193,221.2 C408.912151,221.2 410.544934,222.3 411.83137,223.65 L413.167284,222.35 C411.5345,220.6 409.258499,219.45 406.586671,219.45 C402.57893,219.45 399.115449,222.15 399.115449,226.2 C399.115449,228.7 400.698755,230.4 404.904409,232.7 C408.615281,234.65 409.456412,235.95 409.456412,237.85 C409.456412,240.6 406.636149,242.9 403.370582,242.9 C400.352407,242.9 397.977449,241.2 396.641535,239.1 L395.206664,240.2 C396.592057,242.4 399.758667,244.65 403.123191,244.65 Z M435.086166,244.65 C441.221474,244.65 445.822955,240.75 445.822955,234.95 C445.822955,231.3 443.794345,229.05 440.726691,227.2 L436.619993,224.8 C434.294514,223.45 432.315382,221.75 432.315382,218.75 C432.315382,215.65 434.98721,212.35 439.242343,212.35 C442.656345,212.35 445.229216,214.1 446.911478,216.25 L448.346348,214.95 C446.56513,212.5 443.447997,210.5 439.539212,210.5 C433.997644,210.5 430.138337,214.45 430.138337,219 C430.138337,222.55 432.562773,224.9 435.234601,226.5 L439.440256,229 C442.013127,230.5 443.64591,232.4 443.64591,235.2 C443.64591,239.8 440.033995,242.8 435.333558,242.8 C431.276338,242.8 428.357119,241 426.279031,237.9 L424.646247,239.05 C426.971727,242.7 430.534164,244.65 435.086166,244.65 Z M458.439919,244.65 C464.921575,244.65 471.007405,237.9 471.007405,228.95 C471.007405,222.9 467.840794,219.45 462.942444,219.45 C456.510266,219.45 450.424436,226.15 450.424436,235.15 C450.424436,241.15 453.591047,244.65 458.439919,244.65 Z M458.637832,242.85 C454.679569,242.85 452.453046,240.05 452.453046,234.85 C452.453046,227.5 457.697745,221.25 462.794009,221.25 C466.702794,221.25 468.929317,224 468.929317,229.2 C468.929317,236.6 463.734096,242.85 458.637832,242.85 Z M492.184113,244.65 C493.71794,244.65 495.053854,244.05 495.993941,243.55 L495.44968,242 C494.658028,242.4 493.71794,242.85 492.579939,242.85 C490.007068,242.85 489.215416,241.7 489.215416,239.5 C489.215416,238.8 489.314372,238.2 489.413329,237.6 L492.629418,221.85 L499.061595,221.85 L499.457422,220.05 L493.025244,220.05 L494.410636,213.2 L492.678896,213.2 L491.046112,220.05 L482.288455,220.05 L483.376977,214.55 C483.970717,211.65 485.504544,209.3 487.879502,209.3 C489.116459,209.3 489.95759,209.7 490.699764,210.15 L491.590374,208.5 C490.501851,208 489.512285,207.5 487.879502,207.5 C484.76237,207.5 482.337933,209.8 481.348368,214.55 L480.259845,220.05 L477.093235,220.25 L476.796365,221.85 L479.913497,221.85 L475.509929,244.05 L477.538539,244.05 L481.942107,221.85 L490.600808,221.85 L487.384719,237.5 C487.236284,238.35 487.186806,239 487.186806,239.9 C487.186806,242.45 488.473241,244.65 492.184113,244.65 Z M506.582296,244.05 L513.360821,229.1 C514.399865,226.8 515.438909,224.2 516.428475,221.95 L516.626388,221.95 C516.824302,224.2 516.824302,226.8 516.972736,229.1 L517.962302,244.05 L520.733087,244.05 L531.91518,220.05 L529.936048,220.05 L522.712218,235.75 C521.623696,237.95 520.733087,240.1 519.792999,242.25 L519.595086,242.25 C519.496129,240.1 519.347694,237.95 519.248738,235.75 L518.160215,220.05 L515.686301,220.05 L508.561427,235.75 C507.571861,237.95 506.681252,240.1 505.691686,242.25 L505.493773,242.25 C505.345338,240.1 505.196903,237.95 504.99899,235.75 L503.811511,220.05 L501.782901,220.05 L503.811511,244.05 L506.582296,244.05 Z M541.266577,244.65 C544.532144,244.65 547.599798,242.8 550.024234,240.25 L550.222147,240.25 L549.677886,244.05 L551.409626,244.05 L556.159542,220.05 L554.47728,220.05 L553.537193,223.35 L553.388758,223.35 C552.102322,221 550.024234,219.45 547.25345,219.45 C540.672837,219.45 534.339616,226.75 534.339616,236 C534.339616,241.6 537.110401,244.65 541.266577,244.65 Z M541.711882,242.85 C538.446314,242.85 536.417704,240.45 536.417704,235.6 C536.417704,228.4 541.563447,221.25 547.203972,221.25 C549.430495,221.25 551.360148,222.5 553.091888,225.6 L550.617974,237.65 C547.797711,240.95 544.779536,242.85 541.711882,242.85 Z M562.29485,244.05 L565.411982,228.15 C567.539549,223.85 570.557725,221.4 573.081117,221.4 C573.971727,221.4 574.515988,221.6 574.961292,221.8 L575.752945,219.85 C574.961292,219.55 574.268596,219.45 573.625379,219.45 C570.557725,219.45 568.133288,221.75 566.154157,224.6 L565.956244,224.6 L566.698418,220.05 L565.016156,220.05 L560.216762,244.05 L562.29485,244.05 Z M584.560081,244.65 C587.281387,244.65 589.80478,243.45 591.734433,242.05 L590.794345,240.55 C589.112083,241.8 586.984517,242.9 584.856951,242.9 C580.156513,242.9 576.495119,239.7 577.781555,232.15 L594.356782,232.15 C594.653652,231.2 595,229.65 595,227.95 C595,223 593.020868,219.45 587.875126,219.45 C581.789297,219.45 575.505554,225.65 575.505554,234.75 C575.505554,241.2 579.067991,244.65 584.560081,244.65 Z M592.822955,230.5 L578.078425,230.5 C579.36486,225.05 583.471558,221.2 587.677213,221.2 C591.734433,221.2 593.119825,224.4 593.119825,227.65 C593.119825,228.7 593.020868,229.55 592.822955,230.5 Z" id="AnAlbatrossProjectsSoftware" fill="#000000"></path>
            <path d="M33.33,73.04 L40.04,40.48 C41.25,34.98 42.13,29.15 43.01,23.87 L43.45,23.87 C44.22,29.15 45.1,34.98 46.31,40.48 L53.35,73.04 L73.7,73.04 L86.46,1.32 L70.95,1.32 L66,34.87 C65.01,42.24 64.02,49.83 63.03,57.53 L62.59,57.53 C61.16,49.83 59.73,42.13 58.3,34.87 L50.6,1.32 L36.85,1.32 L29.15,34.87 C27.72,42.35 26.29,49.94 24.86,57.53 L24.42,57.53 C23.54,49.94 22.44,42.35 21.56,34.87 L16.61,1.32 L0,1.32 L13.31,73.04 L33.33,73.04 Z M125.51,74.36 C144.87,74.36 158.07,60.28 158.07,36.85 C158.07,13.53 144.87,0 125.51,0 C106.15,0 92.95,13.42 92.95,36.85 C92.95,60.28 106.15,74.36 125.51,74.36 Z M125.51,60.39 C115.72,60.39 109.56,51.26 109.56,36.85 C109.56,22.55 115.72,13.97 125.51,13.97 C135.3,13.97 141.46,22.55 141.46,36.85 C141.46,51.26 135.3,60.39 125.51,60.39 Z M187.77,73.04 L187.77,47.19 L196.68,47.19 L210.43,73.04 L228.58,73.04 L212.3,44.33 C220,40.92 225.06,34.21 225.06,23.65 C225.06,6.6 212.63,1.32 197.45,1.32 L171.6,1.32 L171.6,73.04 L187.77,73.04 Z M196.13,34.32 L187.77,34.32 L187.77,14.19 L196.13,14.19 C204.6,14.19 209.22,16.61 209.22,23.65 C209.22,30.69 204.6,34.32 196.13,34.32 Z M255.2,73.04 L255.2,53.79 L263.56,42.79 L281.05,73.04 L298.76,73.04 L273.13,29.92 L294.8,1.32 L276.98,1.32 L255.64,30.69 L255.2,30.69 L255.2,1.32 L239.03,1.32 L239.03,73.04 L255.2,73.04 Z M322.74,73.04 L322.74,45.21 L347.6,45.21 L347.6,31.57 L322.74,31.57 L322.74,14.96 L351.78,14.96 L351.78,1.32 L306.57,1.32 L306.57,73.04 L322.74,73.04 Z M408.76,73.04 L408.76,59.4 L380.38,59.4 L380.38,1.32 L364.21,1.32 L364.21,73.04 L408.76,73.04 Z M446.38,74.36 C465.74,74.36 478.94,60.28 478.94,36.85 C478.94,13.53 465.74,0 446.38,0 C427.02,0 413.82,13.42 413.82,36.85 C413.82,60.28 427.02,74.36 446.38,74.36 Z M446.38,60.39 C436.59,60.39 430.43,51.26 430.43,36.85 C430.43,22.55 436.59,13.97 446.38,13.97 C456.17,13.97 462.33,22.55 462.33,36.85 C462.33,51.26 456.17,60.39 446.38,60.39 Z M518.87,73.04 L525.58,40.48 C526.79,34.98 527.67,29.15 528.55,23.87 L528.99,23.87 C529.76,29.15 530.64,34.98 531.85,40.48 L538.89,73.04 L559.24,73.04 L572,1.32 L556.49,1.32 L551.54,34.87 C550.55,42.24 549.56,49.83 548.57,57.53 L548.13,57.53 C546.7,49.83 545.27,42.13 543.84,34.87 L536.14,1.32 L522.39,1.32 L514.69,34.87 C513.26,42.35 511.83,49.94 510.4,57.53 L509.96,57.53 C509.08,49.94 507.98,42.35 507.1,34.87 L502.15,1.32 L485.54,1.32 L498.85,73.04 L518.87,73.04 Z M22.33,189.04 L22.33,163.63 C22.33,155.16 21.01,145.59 20.35,137.67 L20.79,137.67 L27.83,153.29 L46.53,189.04 L63.14,189.04 L63.14,117.32 L47.74,117.32 L47.74,142.62 C47.74,151.09 49.06,161.21 49.72,168.8 L49.28,168.8 L42.24,152.96 L23.54,117.32 L6.93,117.32 L6.93,189.04 L22.33,189.04 Z M87.45,189.04 L91.85,171.99 L113.74,171.99 L118.14,189.04 L135.3,189.04 L112.86,117.32 L93.39,117.32 L70.95,189.04 L87.45,189.04 Z M110.44,159.34 L95.15,159.34 L96.91,152.74 C98.89,145.59 100.76,137.23 102.52,129.64 L102.96,129.64 C104.83,137.12 106.81,145.59 108.79,152.74 L110.44,159.34 Z M173.03,189.04 L194.59,117.32 L178.09,117.32 L169.62,150.76 C167.53,158.57 165.99,165.83 163.9,173.75 L163.46,173.75 C161.26,165.83 159.83,158.57 157.63,150.76 L149.05,117.32 L131.89,117.32 L153.56,189.04 L173.03,189.04 Z M218.46,189.04 L218.46,117.32 L202.29,117.32 L202.29,189.04 L218.46,189.04 Z M267.08,190.36 C277.09,190.36 285.78,186.51 290.73,181.67 L290.73,148.67 L264.55,148.67 L264.55,161.87 L276.43,161.87 L276.43,174.19 C274.67,175.62 271.7,176.39 268.73,176.39 C255.31,176.39 248.6,167.81 248.6,153.07 C248.6,138.66 256.41,129.97 267.52,129.97 C273.68,129.97 277.42,132.5 281.05,135.69 L289.52,125.35 C284.79,120.51 277.31,116 266.97,116 C247.83,116 231.99,129.86 231.99,153.62 C231.99,177.71 247.39,190.36 267.08,190.36 Z M312.07,189.04 L316.47,171.99 L338.36,171.99 L342.76,189.04 L359.92,189.04 L337.48,117.32 L318.01,117.32 L295.57,189.04 L312.07,189.04 Z M335.06,159.34 L319.77,159.34 L321.53,152.74 C323.51,145.59 325.38,137.23 327.14,129.64 L327.58,129.64 C329.45,137.12 331.43,145.59 333.41,152.74 L335.06,159.34 Z M389.95,189.04 L389.95,130.96 L409.64,130.96 L409.64,117.32 L353.98,117.32 L353.98,130.96 L373.67,130.96 L373.67,189.04 L389.95,189.04 Z M446.93,190.36 C466.29,190.36 479.49,176.28 479.49,152.85 C479.49,129.53 466.29,116 446.93,116 C427.57,116 414.37,129.42 414.37,152.85 C414.37,176.28 427.57,190.36 446.93,190.36 Z M446.93,176.39 C437.14,176.39 430.98,167.26 430.98,152.85 C430.98,138.55 437.14,129.97 446.93,129.97 C456.72,129.97 462.88,138.55 462.88,152.85 C462.88,167.26 456.72,176.39 446.93,176.39 Z M509.19,189.04 L509.19,163.19 L518.1,163.19 L531.85,189.04 L550,189.04 L533.72,160.33 C541.42,156.92 546.48,150.21 546.48,139.65 C546.48,122.6 534.05,117.32 518.87,117.32 L493.02,117.32 L493.02,189.04 L509.19,189.04 Z M517.55,150.32 L509.19,150.32 L509.19,130.19 L517.55,130.19 C526.02,130.19 530.64,132.61 530.64,139.65 C530.64,146.69 526.02,150.32 517.55,150.32 Z" id="WORKFLOWNAVIGATOR" fill="#505152"></path>
        </g>
        <circle id="Oval" stroke="#008093" stroke-width="10" cx="91.5" cy="56.5" r="34.5"></circle>
        <rect id="Rectangle" stroke="#008093" stroke-width="10" x="39" y="273" width="105" height="59" rx="2"></rect>
        <line x1="92.5" y1="227.5" x2="93" y2="268" id="Line" stroke="#008093" stroke-width="10" stroke-linecap="square"></line>
        <line x1="91.5" y1="93.5" x2="92" y2="134" id="Line" stroke="#008093" stroke-width="10" stroke-linecap="square"></line>
        <rect id="Rectangle" stroke="#008093" stroke-width="10" transform="translate(93.000000, 183.000000) rotate(45.000000) translate(-93.000000, -183.000000) " x="61.5" y="151.5" width="63" height="63"></rect>
        <path id="Line-2" d="M754,157 L808,184 L754,211 L754,189 L127,189 L127,179 L754,179 L754,157 Z" fill="#008093" fill-rule="nonzero"></path>
        <g filter="url(#filter-1)" id="Group-2">
            <g transform="translate(57.000000, 289.000000)">
                <path d="M19.3777293,0 L19.3777293,3.27272727 L3.22962154,3.27272727 L3.22962154,23.7272727 L19.3777293,23.7272727 L19.3777293,27 L0,27 L0,0 L19.3777293,0 Z" id="Combined-Shape" fill="#007F98"></path>
                <path d="M71,0 L71,3.27272727 L54.8518923,3.27272727 L54.8518923,23.7272727 L71,23.7272727 L71,27 L51.6222707,27 L51.6222707,0 L71,0 Z" id="Combined-Shape" fill="#007F98" transform="translate(61.311135, 13.500000) scale(-1, 1) translate(-61.311135, -13.500000) "></path>
                <path d="M51.2482771,13.6572205 C51.2904734,13.9900973 51.3122271,14.3294268 51.3122271,14.6738854 C51.3122271,19.0539264 47.7948743,22.6046512 43.4559998,22.6046512 C39.7413502,22.6046512 36.6288449,20.0021044 35.8101513,16.5047284 L37.4786565,16.5044254 C38.255621,19.093267 40.6377975,20.9778274 43.4559998,20.9778274 C46.9048488,20.9778274 49.7006933,18.1554564 49.7006933,14.6738854 C49.7006933,14.3276538 49.6730432,13.9879414 49.6198506,13.6568758 L51.2482771,13.6572205 Z" id="Combined-Shape" fill="#007F98"></path>
                <path d="M35.2810084,4.86662373 C35.3232047,5.19950055 35.3449584,5.53883008 35.3449584,5.88328867 C35.3449584,10.2633296 31.8276057,13.8140544 27.4887312,13.8140544 C23.7740815,13.8140544 20.6615762,11.2115076 19.8428826,7.71413163 L21.5113878,7.71382863 C22.2883523,10.3026702 24.6705289,12.1872307 27.4887312,12.1872307 C30.9375801,12.1872307 33.7334246,9.3648597 33.7334246,5.88328867 C33.7334246,5.53705702 33.7057746,5.19734466 33.6525819,4.86627907 L35.2810084,4.86662373 Z" id="Combined-Shape" fill="#007F98" transform="translate(27.593877, 9.340167) scale(-1, -1) translate(-27.593877, -9.340167) "></path>
                <polygon id="Path-2" fill="#007F98" points="35.3104987 10.8354313 37.4755369 16.5040621 35.9611865 17.1104651 33.6717026 10.9387419"></polygon>
            </g>
        </g>
    </g>
</svg>